%TF.GenerationSoftware,KiCad,Pcbnew,(6.0.6)*%
%TF.CreationDate,2022-07-15T00:25:02-04:00*%
%TF.ProjectId,Two Phase Bipolar Stepper Motor,54776f20-5068-4617-9365-204269706f6c,#1*%
%TF.SameCoordinates,Original*%
%TF.FileFunction,Soldermask,Bot*%
%TF.FilePolarity,Negative*%
%FSLAX46Y46*%
G04 Gerber Fmt 4.6, Leading zero omitted, Abs format (unit mm)*
G04 Created by KiCad (PCBNEW (6.0.6)) date 2022-07-15 00:25:02*
%MOMM*%
%LPD*%
G01*
G04 APERTURE LIST*
%ADD10O,2.400000X2.400000*%
%ADD11R,2.400000X2.400000*%
%ADD12C,2.500000*%
%ADD13R,2.600000X2.600000*%
%ADD14C,2.600000*%
%ADD15C,2.400000*%
%ADD16R,1.600000X1.600000*%
%ADD17O,1.600000X1.600000*%
%ADD18C,1.600000*%
%ADD19C,2.000000*%
%ADD20R,1.620000X1.620000*%
%ADD21C,1.620000*%
G04 APERTURE END LIST*
D10*
%TO.C,D4*%
X218230000Y-117500000D03*
D11*
X233470000Y-117500000D03*
%TD*%
D12*
%TO.C,REF\u002A\u002A*%
X198950000Y-65500000D03*
%TD*%
%TO.C,REF\u002A\u002A*%
X198950000Y-137300000D03*
%TD*%
%TO.C,REF\u002A\u002A*%
X263125000Y-137650000D03*
%TD*%
%TO.C,REF\u002A\u002A*%
X261600000Y-63500000D03*
%TD*%
D11*
%TO.C,D6*%
X213150000Y-120830000D03*
D10*
X197910000Y-120830000D03*
%TD*%
D13*
%TO.C,J3*%
X261417000Y-125984000D03*
D14*
X261417000Y-120904000D03*
X261417000Y-115824000D03*
X261417000Y-110744000D03*
X261417000Y-105664000D03*
X261417000Y-100584000D03*
X261417000Y-95504000D03*
X261417000Y-90424000D03*
X261417000Y-85344000D03*
X261417000Y-80264000D03*
X261417000Y-75184000D03*
X261417000Y-70104000D03*
%TD*%
D10*
%TO.C,RS1*%
X237280000Y-140950000D03*
D15*
X252520000Y-140950000D03*
%TD*%
D13*
%TO.C,J2*%
X228092000Y-66040000D03*
D14*
X223012000Y-66040000D03*
%TD*%
D11*
%TO.C,D7*%
X213150000Y-112575000D03*
D10*
X197910000Y-112575000D03*
%TD*%
D15*
%TO.C,C4*%
X215356000Y-81050000D03*
D11*
X220356000Y-81050000D03*
%TD*%
D10*
%TO.C,R1*%
X224100000Y-96200000D03*
D15*
X198700000Y-96200000D03*
%TD*%
D10*
%TO.C,D1*%
X218230000Y-139750000D03*
D11*
X233470000Y-139750000D03*
%TD*%
D16*
%TO.C,U1*%
X252900000Y-86600000D03*
D17*
X250360000Y-86600000D03*
X247820000Y-86600000D03*
X245280000Y-86600000D03*
X242740000Y-86600000D03*
X240200000Y-86600000D03*
X237660000Y-86600000D03*
X235120000Y-86600000D03*
X232580000Y-86600000D03*
X230040000Y-86600000D03*
X230040000Y-94220000D03*
X232580000Y-94220000D03*
X235120000Y-94220000D03*
X237660000Y-94220000D03*
X240200000Y-94220000D03*
X242740000Y-94220000D03*
X245280000Y-94220000D03*
X247820000Y-94220000D03*
X250360000Y-94220000D03*
X252900000Y-94220000D03*
%TD*%
D15*
%TO.C,RS2*%
X252570000Y-135550000D03*
D10*
X237330000Y-135550000D03*
%TD*%
%TO.C,D8*%
X197910000Y-105300000D03*
D11*
X213150000Y-105300000D03*
%TD*%
D18*
%TO.C,C3*%
X208712000Y-81050000D03*
X203712000Y-81050000D03*
%TD*%
%TO.C,C2*%
X239750000Y-77150000D03*
X239750000Y-82150000D03*
%TD*%
D14*
%TO.C,J1*%
X210312000Y-66040000D03*
D13*
X215392000Y-66040000D03*
%TD*%
%TO.C,J4*%
X234700000Y-108305000D03*
D14*
X239700000Y-108305000D03*
X244700000Y-108305000D03*
X249700000Y-108305000D03*
%TD*%
D11*
%TO.C,D5*%
X213150000Y-128450000D03*
D10*
X197910000Y-128450000D03*
%TD*%
%TO.C,D2*%
X218330000Y-131200000D03*
D11*
X233570000Y-131200000D03*
%TD*%
D19*
%TO.C,C1*%
X199100000Y-84800000D03*
X199100000Y-77300000D03*
%TD*%
D20*
%TO.C,U2*%
X233172000Y-71120000D03*
D21*
X234442000Y-66040000D03*
X235712000Y-71120000D03*
X236982000Y-66040000D03*
X238252000Y-71120000D03*
X239522000Y-66040000D03*
X240792000Y-71120000D03*
X242062000Y-66040000D03*
X243332000Y-71120000D03*
X244602000Y-66040000D03*
X245872000Y-71120000D03*
X247142000Y-66040000D03*
X248412000Y-71120000D03*
X249682000Y-66040000D03*
X250952000Y-71120000D03*
%TD*%
D10*
%TO.C,D3*%
X218330000Y-124250000D03*
D11*
X233570000Y-124250000D03*
%TD*%
M02*
