%TF.GenerationSoftware,KiCad,Pcbnew,(6.0.6)*%
%TF.CreationDate,2022-07-15T00:25:02-04:00*%
%TF.ProjectId,Two Phase Bipolar Stepper Motor,54776f20-5068-4617-9365-204269706f6c,#1*%
%TF.SameCoordinates,Original*%
%TF.FileFunction,Copper,L1,Top*%
%TF.FilePolarity,Positive*%
%FSLAX46Y46*%
G04 Gerber Fmt 4.6, Leading zero omitted, Abs format (unit mm)*
G04 Created by KiCad (PCBNEW (6.0.6)) date 2022-07-15 00:25:02*
%MOMM*%
%LPD*%
G01*
G04 APERTURE LIST*
%TA.AperFunction,ComponentPad*%
%ADD10O,2.400000X2.400000*%
%TD*%
%TA.AperFunction,ComponentPad*%
%ADD11R,2.400000X2.400000*%
%TD*%
%TA.AperFunction,ComponentPad*%
%ADD12R,2.600000X2.600000*%
%TD*%
%TA.AperFunction,ComponentPad*%
%ADD13C,2.600000*%
%TD*%
%TA.AperFunction,ComponentPad*%
%ADD14C,2.400000*%
%TD*%
%TA.AperFunction,ComponentPad*%
%ADD15R,1.600000X1.600000*%
%TD*%
%TA.AperFunction,ComponentPad*%
%ADD16O,1.600000X1.600000*%
%TD*%
%TA.AperFunction,ComponentPad*%
%ADD17C,1.600000*%
%TD*%
%TA.AperFunction,ComponentPad*%
%ADD18C,2.000000*%
%TD*%
%TA.AperFunction,ComponentPad*%
%ADD19R,1.620000X1.620000*%
%TD*%
%TA.AperFunction,ComponentPad*%
%ADD20C,1.620000*%
%TD*%
%TA.AperFunction,ViaPad*%
%ADD21C,0.800000*%
%TD*%
%TA.AperFunction,Conductor*%
%ADD22C,0.300000*%
%TD*%
%TA.AperFunction,Conductor*%
%ADD23C,0.400000*%
%TD*%
G04 APERTURE END LIST*
D10*
%TO.P,D4,2,A*%
%TO.N,Net-(D4-Pad2)*%
X218230000Y-117500000D03*
D11*
%TO.P,D4,1,K*%
%TO.N,VS*%
X233470000Y-117500000D03*
%TD*%
%TO.P,D6,1,K*%
%TO.N,Net-(D6-Pad1)*%
X213150000Y-120830000D03*
D10*
%TO.P,D6,2,A*%
%TO.N,GND*%
X197910000Y-120830000D03*
%TD*%
D12*
%TO.P,J3,1,Pin_1*%
%TO.N,GND*%
X261417000Y-125984000D03*
D13*
%TO.P,J3,2,Pin_2*%
%TO.N,/HALF*%
X261417000Y-120904000D03*
%TO.P,J3,3,Pin_3*%
%TO.N,/HOME*%
X261417000Y-115824000D03*
%TO.P,J3,4,Pin_4*%
%TO.N,/Vref*%
X261417000Y-110744000D03*
%TO.P,J3,5,Pin_5*%
%TO.N,/CLK*%
X261417000Y-105664000D03*
%TO.P,J3,6,Pin_6*%
%TO.N,/CW*%
X261417000Y-100584000D03*
%TO.P,J3,7,Pin_7*%
%TO.N,/ENA*%
X261417000Y-95504000D03*
%TO.P,J3,8,Pin_8*%
%TO.N,/RESET*%
X261417000Y-90424000D03*
%TO.P,J3,9,Pin_9*%
%TO.N,/CTRL*%
X261417000Y-85344000D03*
%TO.P,J3,10,Pin_10*%
%TO.N,/OSC*%
X261417000Y-80264000D03*
%TO.P,J3,11,Pin_11*%
%TO.N,/SYNC*%
X261417000Y-75184000D03*
%TO.P,J3,12,Pin_12*%
%TO.N,unconnected-(J3-Pad12)*%
X261417000Y-70104000D03*
%TD*%
D10*
%TO.P,RS1,2*%
%TO.N,GND*%
X237280000Y-140950000D03*
D14*
%TO.P,RS1,1*%
%TO.N,/RS1*%
X252520000Y-140950000D03*
%TD*%
D12*
%TO.P,J2,1,Pin_1*%
%TO.N,VSS*%
X228092000Y-66040000D03*
D13*
%TO.P,J2,2,Pin_2*%
%TO.N,GND*%
X223012000Y-66040000D03*
%TD*%
D11*
%TO.P,D7,1,K*%
%TO.N,Net-(D3-Pad2)*%
X213150000Y-112575000D03*
D10*
%TO.P,D7,2,A*%
%TO.N,GND*%
X197910000Y-112575000D03*
%TD*%
D14*
%TO.P,C4,2*%
%TO.N,GND*%
X215356000Y-81050000D03*
D11*
%TO.P,C4,1*%
%TO.N,VS*%
X220356000Y-81050000D03*
%TD*%
D10*
%TO.P,R1,2*%
%TO.N,VSS*%
X224100000Y-96200000D03*
D14*
%TO.P,R1,1*%
%TO.N,/OSC*%
X198700000Y-96200000D03*
%TD*%
D10*
%TO.P,D1,2,A*%
%TO.N,Net-(D5-Pad1)*%
X218230000Y-139750000D03*
D11*
%TO.P,D1,1,K*%
%TO.N,VS*%
X233470000Y-139750000D03*
%TD*%
D15*
%TO.P,U1,1,SYNC*%
%TO.N,/SYNC*%
X252900000Y-86600000D03*
D16*
%TO.P,U1,2,GND*%
%TO.N,GND*%
X250360000Y-86600000D03*
%TO.P,U1,3,HOME*%
%TO.N,/HOME*%
X247820000Y-86600000D03*
%TO.P,U1,4,A*%
%TO.N,Net-(U2-Pad5)*%
X245280000Y-86600000D03*
%TO.P,U1,5,INH1*%
%TO.N,Net-(U2-Pad6)*%
X242740000Y-86600000D03*
%TO.P,U1,6,B*%
%TO.N,Net-(U2-Pad7)*%
X240200000Y-86600000D03*
%TO.P,U1,7,C*%
%TO.N,Net-(U2-Pad10)*%
X237660000Y-86600000D03*
%TO.P,U1,8,INH2*%
%TO.N,Net-(U2-Pad11)*%
X235120000Y-86600000D03*
%TO.P,U1,9,D*%
%TO.N,Net-(U2-Pad12)*%
X232580000Y-86600000D03*
%TO.P,U1,10,ENABLE*%
%TO.N,/ENA*%
X230040000Y-86600000D03*
%TO.P,U1,11,CONTROL*%
%TO.N,/CTRL*%
X230040000Y-94220000D03*
%TO.P,U1,12,Vs*%
%TO.N,VSS*%
X232580000Y-94220000D03*
%TO.P,U1,13,SENS2*%
%TO.N,/RS2*%
X235120000Y-94220000D03*
%TO.P,U1,14,SENS1*%
%TO.N,/RS1*%
X237660000Y-94220000D03*
%TO.P,U1,15,Vref*%
%TO.N,/Vref*%
X240200000Y-94220000D03*
%TO.P,U1,16,OSC*%
%TO.N,/OSC*%
X242740000Y-94220000D03*
%TO.P,U1,17,CW*%
%TO.N,/CW*%
X245280000Y-94220000D03*
%TO.P,U1,18,CLOCK*%
%TO.N,/CLK*%
X247820000Y-94220000D03*
%TO.P,U1,19,HALF*%
%TO.N,/HALF*%
X250360000Y-94220000D03*
%TO.P,U1,20,RESET*%
%TO.N,/RESET*%
X252900000Y-94220000D03*
%TD*%
D14*
%TO.P,RS2,1*%
%TO.N,/RS2*%
X252570000Y-135550000D03*
D10*
%TO.P,RS2,2*%
%TO.N,GND*%
X237330000Y-135550000D03*
%TD*%
%TO.P,D8,2,A*%
%TO.N,GND*%
X197910000Y-105300000D03*
D11*
%TO.P,D8,1,K*%
%TO.N,Net-(D4-Pad2)*%
X213150000Y-105300000D03*
%TD*%
D17*
%TO.P,C3,1*%
%TO.N,VS*%
X208712000Y-81050000D03*
%TO.P,C3,2*%
%TO.N,GND*%
X203712000Y-81050000D03*
%TD*%
%TO.P,C2,1*%
%TO.N,VSS*%
X239750000Y-77150000D03*
%TO.P,C2,2*%
%TO.N,GND*%
X239750000Y-82150000D03*
%TD*%
D13*
%TO.P,J1,2,Pin_2*%
%TO.N,GND*%
X210312000Y-66040000D03*
D12*
%TO.P,J1,1,Pin_1*%
%TO.N,VS*%
X215392000Y-66040000D03*
%TD*%
%TO.P,J4,1,Pin_1*%
%TO.N,Net-(U2-Pad2)*%
X234700000Y-108305000D03*
D13*
%TO.P,J4,2,Pin_2*%
%TO.N,Net-(U2-Pad3)*%
X239700000Y-108305000D03*
%TO.P,J4,3,Pin_3*%
%TO.N,Net-(U2-Pad13)*%
X244700000Y-108305000D03*
%TO.P,J4,4,Pin_4*%
%TO.N,Net-(U2-Pad14)*%
X249700000Y-108305000D03*
%TD*%
D11*
%TO.P,D5,1,K*%
%TO.N,Net-(D5-Pad1)*%
X213150000Y-128450000D03*
D10*
%TO.P,D5,2,A*%
%TO.N,GND*%
X197910000Y-128450000D03*
%TD*%
%TO.P,D2,2,A*%
%TO.N,Net-(D6-Pad1)*%
X218330000Y-131200000D03*
D11*
%TO.P,D2,1,K*%
%TO.N,VS*%
X233570000Y-131200000D03*
%TD*%
D18*
%TO.P,C1,1*%
%TO.N,/OSC*%
X199100000Y-84800000D03*
%TO.P,C1,2*%
%TO.N,GND*%
X199100000Y-77300000D03*
%TD*%
D19*
%TO.P,U2,1,CS_A*%
%TO.N,/RS1*%
X233172000Y-71120000D03*
D20*
%TO.P,U2,2,OUT1*%
%TO.N,Net-(U2-Pad2)*%
X234442000Y-66040000D03*
%TO.P,U2,3,OUT2*%
%TO.N,Net-(U2-Pad3)*%
X235712000Y-71120000D03*
%TO.P,U2,4,VS*%
%TO.N,VS*%
X236982000Y-66040000D03*
%TO.P,U2,5,IN1*%
%TO.N,Net-(U2-Pad5)*%
X238252000Y-71120000D03*
%TO.P,U2,6,EN_A*%
%TO.N,Net-(U2-Pad6)*%
X239522000Y-66040000D03*
%TO.P,U2,7,IN2*%
%TO.N,Net-(U2-Pad7)*%
X240792000Y-71120000D03*
%TO.P,U2,8,GND*%
%TO.N,GND*%
X242062000Y-66040000D03*
%TO.P,U2,9,VSS*%
%TO.N,VSS*%
X243332000Y-71120000D03*
%TO.P,U2,10,IN3*%
%TO.N,Net-(U2-Pad10)*%
X244602000Y-66040000D03*
%TO.P,U2,11,EN_B*%
%TO.N,Net-(U2-Pad11)*%
X245872000Y-71120000D03*
%TO.P,U2,12,IN4*%
%TO.N,Net-(U2-Pad12)*%
X247142000Y-66040000D03*
%TO.P,U2,13,OUT3*%
%TO.N,Net-(U2-Pad13)*%
X248412000Y-71120000D03*
%TO.P,U2,14,OUT4*%
%TO.N,Net-(U2-Pad14)*%
X249682000Y-66040000D03*
%TO.P,U2,15,CS_B*%
%TO.N,/RS2*%
X250952000Y-71120000D03*
%TD*%
D10*
%TO.P,D3,2,A*%
%TO.N,Net-(D3-Pad2)*%
X218330000Y-124250000D03*
D11*
%TO.P,D3,1,K*%
%TO.N,VS*%
X233570000Y-124250000D03*
%TD*%
D21*
%TO.N,Net-(U2-Pad5)*%
X237759500Y-74059500D03*
X243973568Y-80359500D03*
%TO.N,Net-(U2-Pad13)*%
X253300000Y-69150000D03*
X253900000Y-66890500D03*
X253851851Y-62420086D03*
X206200000Y-61290500D03*
X204464962Y-85510137D03*
X222530500Y-105800000D03*
X224300000Y-105650000D03*
X197840500Y-89959500D03*
X227000000Y-105550000D03*
X216200000Y-102409500D03*
%TO.N,Net-(U2-Pad7)*%
X233450000Y-76209500D03*
X232359503Y-74059500D03*
%TO.N,Net-(U2-Pad11)*%
X229180500Y-78250000D03*
X233439500Y-78250000D03*
X226690500Y-78300000D03*
%TO.N,Net-(U2-Pad14)*%
X253063762Y-63279586D03*
%TO.N,Net-(U2-Pad10)*%
X229180500Y-84962942D03*
X226400000Y-83190500D03*
X219090500Y-88450000D03*
%TO.N,Net-(U2-Pad3)*%
X221159500Y-88559500D03*
X220976189Y-102831318D03*
X224249500Y-107250000D03*
X230390500Y-72340500D03*
X226719500Y-107205280D03*
%TO.N,Net-(U2-Pad2)*%
X222530500Y-108400000D03*
X226900000Y-108300000D03*
X224900500Y-108350000D03*
%TO.N,/RS2*%
X228550000Y-84050000D03*
X236900000Y-72340500D03*
X233450000Y-74450000D03*
X225850000Y-87559500D03*
%TO.N,/RS1*%
X219950000Y-102409500D03*
X224249500Y-112900000D03*
X236800000Y-120850000D03*
%TO.N,/RS2*%
X235800000Y-132550000D03*
X227359500Y-91790500D03*
%TO.N,Net-(U2-Pad12)*%
X231250000Y-74059500D03*
X231250000Y-76209500D03*
X231350000Y-69439500D03*
%TO.N,/HALF*%
X228800000Y-97409500D03*
X234359500Y-114000450D03*
%TO.N,/HOME*%
X253959500Y-74336061D03*
X256850000Y-76043500D03*
X256850000Y-84484500D03*
X258500000Y-86203500D03*
X264800000Y-96550000D03*
%TO.N,/Vref*%
X243599500Y-92500000D03*
X244150000Y-96688517D03*
%TO.N,/CLK*%
X256440500Y-92850000D03*
%TO.N,/ENA*%
X252050000Y-73200000D03*
X230050000Y-76250000D03*
%TO.N,/OSC*%
X224800000Y-103500000D03*
%TO.N,VSS*%
X224850000Y-90390500D03*
X224250000Y-102250000D03*
%TD*%
D22*
%TO.N,VSS*%
X243332000Y-77150000D02*
X239750000Y-77150000D01*
X243332000Y-71120000D02*
X243332000Y-77150000D01*
%TO.N,Net-(U2-Pad5)*%
X237759500Y-71120000D02*
X238252000Y-71120000D01*
X237759500Y-74059500D02*
X237759500Y-71120000D01*
X244000000Y-86600000D02*
X244000000Y-80359500D01*
X244000000Y-80359500D02*
X243973568Y-80359500D01*
X245280000Y-86600000D02*
X244000000Y-86600000D01*
%TO.N,VSS*%
X239600000Y-77150000D02*
X239750000Y-77150000D01*
X239600000Y-75350000D02*
X239600000Y-77150000D01*
X224850000Y-75350000D02*
X239600000Y-75350000D01*
X224850000Y-90390500D02*
X224850000Y-75350000D01*
%TO.N,Net-(U2-Pad13)*%
X248412000Y-69150000D02*
X248412000Y-71120000D01*
X253300000Y-69150000D02*
X248412000Y-69150000D01*
X253923762Y-62491997D02*
X253923762Y-66890500D01*
X253851851Y-62420086D02*
X253923762Y-62491997D01*
X253923762Y-66890500D02*
X253900000Y-66890500D01*
%TO.N,Net-(U2-Pad6)*%
X242740000Y-79500000D02*
X242740000Y-86600000D01*
X244400000Y-79500000D02*
X242740000Y-79500000D01*
X244400000Y-72500000D02*
X244400000Y-79500000D01*
X251300000Y-72500000D02*
X244400000Y-72500000D01*
X251300000Y-72400000D02*
X251300000Y-72500000D01*
X254240000Y-72350000D02*
X253500000Y-72350000D01*
X254240000Y-67750000D02*
X254240000Y-72350000D01*
X239700000Y-67750000D02*
X254240000Y-67750000D01*
X239700000Y-66040000D02*
X239700000Y-67750000D01*
X253500000Y-72350000D02*
X253490000Y-72340000D01*
X251360000Y-72340000D02*
X251300000Y-72400000D01*
X239522000Y-66040000D02*
X239700000Y-66040000D01*
X253490000Y-72340000D02*
X251360000Y-72340000D01*
%TO.N,Net-(U2-Pad13)*%
X204905925Y-80462015D02*
X204905925Y-61290500D01*
X204972000Y-80528090D02*
X204905925Y-80462015D01*
X204972000Y-85003099D02*
X204972000Y-80528090D01*
X204464962Y-85510137D02*
X204972000Y-85003099D01*
X197840500Y-89700000D02*
X197840500Y-89959500D01*
X197000000Y-89700000D02*
X197840500Y-89700000D01*
X204905925Y-61290500D02*
X206200000Y-61290500D01*
X216200000Y-102409500D02*
X197000000Y-102409500D01*
X222680500Y-105650000D02*
X222530500Y-105800000D01*
X224300000Y-105650000D02*
X222680500Y-105650000D01*
X197000000Y-102409500D02*
X197000000Y-89700000D01*
X231150000Y-105640000D02*
X227000000Y-105640000D01*
X231150000Y-102150000D02*
X231150000Y-105640000D01*
X244050000Y-102150000D02*
X231150000Y-102150000D01*
X244050000Y-108305000D02*
X244050000Y-102150000D01*
X227000000Y-105640000D02*
X227000000Y-105550000D01*
X244700000Y-108305000D02*
X244050000Y-108305000D01*
%TO.N,Net-(U2-Pad7)*%
X240200000Y-85200000D02*
X240200000Y-86600000D01*
X235730000Y-83480000D02*
X235730000Y-85200000D01*
X235700000Y-83450000D02*
X235730000Y-83480000D01*
X235700000Y-76209500D02*
X235700000Y-83450000D01*
X233450000Y-76209500D02*
X235700000Y-76209500D01*
X235730000Y-85200000D02*
X240200000Y-85200000D01*
X231928362Y-73521638D02*
X232359503Y-73521638D01*
X231900000Y-70105724D02*
X231900000Y-73493276D01*
X232205724Y-69800000D02*
X231900000Y-70105724D01*
X232650000Y-69800000D02*
X232205724Y-69800000D01*
X240550000Y-69800000D02*
X232650000Y-69800000D01*
X232359503Y-73521638D02*
X232359503Y-74059500D01*
X240550000Y-69850000D02*
X240550000Y-69800000D01*
X231900000Y-73493276D02*
X231928362Y-73521638D01*
X240550000Y-71120000D02*
X240550000Y-69850000D01*
X240792000Y-71120000D02*
X240550000Y-71120000D01*
%TO.N,Net-(U2-Pad11)*%
X235120000Y-83950000D02*
X235120000Y-86600000D01*
X233439500Y-83950000D02*
X235120000Y-83950000D01*
X233439500Y-78250000D02*
X233439500Y-83950000D01*
X229130500Y-78300000D02*
X229180500Y-78250000D01*
X226690500Y-78300000D02*
X229130500Y-78300000D01*
%TO.N,Net-(U2-Pad14)*%
X249682000Y-63279586D02*
X249682000Y-66040000D01*
X253063762Y-63279586D02*
X249682000Y-63279586D01*
%TO.N,Net-(U2-Pad10)*%
X229410000Y-84962942D02*
X229180500Y-84962942D01*
X229410000Y-83693776D02*
X229410000Y-84962942D01*
X228906724Y-83190500D02*
X229410000Y-83693776D01*
X226400000Y-83190500D02*
X228906724Y-83190500D01*
X219090500Y-90550000D02*
X219090500Y-88450000D01*
X216200000Y-90550000D02*
X219090500Y-90550000D01*
X207750000Y-84250000D02*
X207900000Y-84250000D01*
X207900000Y-86100000D02*
X216200000Y-86100000D01*
X207350000Y-84250000D02*
X207750000Y-84250000D01*
X216200000Y-86100000D02*
X216200000Y-90550000D01*
X207350000Y-81000000D02*
X207350000Y-84250000D01*
X207900000Y-84250000D02*
X207900000Y-86100000D01*
X207350000Y-62150000D02*
X207350000Y-81000000D01*
X205700000Y-62150000D02*
X207350000Y-62150000D01*
X227350000Y-62100000D02*
X227350000Y-62150000D01*
X239650000Y-62100000D02*
X227350000Y-62100000D01*
X244602000Y-62100000D02*
X239650000Y-62100000D01*
X227350000Y-62150000D02*
X205700000Y-62150000D01*
X244602000Y-66040000D02*
X244602000Y-62100000D01*
%TO.N,Net-(U2-Pad3)*%
X223800000Y-72340500D02*
X230390500Y-72340500D01*
X223800000Y-73050000D02*
X223800000Y-72340500D01*
X223800000Y-86500000D02*
X223800000Y-73050000D01*
X223350000Y-86950000D02*
X223800000Y-86500000D01*
X221159500Y-88559500D02*
X221159500Y-86950000D01*
X220800000Y-102831318D02*
X220976189Y-102831318D01*
X224249500Y-107250000D02*
X220800000Y-107250000D01*
X221159500Y-86950000D02*
X223350000Y-86950000D01*
X220800000Y-107250000D02*
X220800000Y-102831318D01*
X226750000Y-107205280D02*
X226719500Y-107205280D01*
X226750000Y-107440000D02*
X226750000Y-107205280D01*
X231090000Y-107440000D02*
X226750000Y-107440000D01*
X231250000Y-107600000D02*
X231090000Y-107440000D01*
X231250000Y-106250000D02*
X231250000Y-107600000D01*
X239700000Y-106250000D02*
X231250000Y-106250000D01*
X239700000Y-108305000D02*
X239700000Y-106250000D01*
%TO.N,Net-(U2-Pad2)*%
X224900500Y-108350000D02*
X222580500Y-108350000D01*
X226900000Y-108305000D02*
X226900000Y-108300000D01*
X222580500Y-108350000D02*
X222530500Y-108400000D01*
X234700000Y-108305000D02*
X226900000Y-108305000D01*
%TO.N,/RS2*%
X225850000Y-84050000D02*
X225850000Y-87559500D01*
X228550000Y-84050000D02*
X225850000Y-84050000D01*
X236900000Y-74450000D02*
X233450000Y-74450000D01*
X236900000Y-72340500D02*
X236900000Y-74450000D01*
%TO.N,/RS1*%
X219950000Y-112900000D02*
X219950000Y-102409500D01*
X224249500Y-112900000D02*
X219950000Y-112900000D01*
X236800000Y-131900000D02*
X236800000Y-120850000D01*
X237150000Y-131900000D02*
X236800000Y-131900000D01*
X256750000Y-131900000D02*
X237150000Y-131900000D01*
X256750000Y-143050000D02*
X256750000Y-131900000D01*
X256750000Y-143700000D02*
X256750000Y-143050000D01*
X252450000Y-143700000D02*
X256750000Y-143700000D01*
X252520000Y-140950000D02*
X252450000Y-140950000D01*
X252450000Y-140950000D02*
X252450000Y-143700000D01*
%TO.N,/RS2*%
X252570000Y-132550000D02*
X252570000Y-135550000D01*
X235800000Y-132550000D02*
X252570000Y-132550000D01*
X235120000Y-91790500D02*
X227359500Y-91790500D01*
X235120000Y-94220000D02*
X235120000Y-91790500D01*
D23*
%TO.N,VS*%
X220250000Y-81156000D02*
X220356000Y-81050000D01*
X220250000Y-91300000D02*
X220250000Y-81156000D01*
X224250000Y-93931694D02*
X224250000Y-91300000D01*
X225810000Y-95491694D02*
X224250000Y-93931694D01*
X225900000Y-113950000D02*
X225810000Y-113860000D01*
X233450000Y-113950000D02*
X225900000Y-113950000D01*
X233450000Y-117500000D02*
X233450000Y-113950000D01*
X225810000Y-113860000D02*
X225810000Y-95491694D01*
X224250000Y-91300000D02*
X220250000Y-91300000D01*
X233470000Y-117500000D02*
X233450000Y-117500000D01*
D22*
%TO.N,Net-(U2-Pad12)*%
X231250000Y-74059500D02*
X231250000Y-69439500D01*
X231250000Y-69439500D02*
X231350000Y-69439500D01*
X232580000Y-76209500D02*
X231250000Y-76209500D01*
X232580000Y-86600000D02*
X232580000Y-76209500D01*
%TO.N,/HALF*%
X250360000Y-88300000D02*
X250360000Y-94220000D01*
X226500000Y-88300000D02*
X250360000Y-88300000D01*
X226500000Y-97409500D02*
X226500000Y-88300000D01*
X228800000Y-97409500D02*
X226500000Y-97409500D01*
X254650000Y-120904000D02*
X254650000Y-114000000D01*
X234359500Y-114000000D02*
X234359500Y-114000450D01*
X261417000Y-120904000D02*
X254650000Y-120904000D01*
X254650000Y-114000000D02*
X234359500Y-114000000D01*
%TO.N,/HOME*%
X247820000Y-74336061D02*
X247820000Y-86600000D01*
X253959500Y-74336061D02*
X247820000Y-74336061D01*
X256850000Y-84484500D02*
X256850000Y-76043500D01*
X258500000Y-97650000D02*
X258500000Y-86203500D01*
X264800000Y-97650000D02*
X258600000Y-97650000D01*
X258600000Y-97650000D02*
X258500000Y-97650000D01*
X264800000Y-96550000D02*
X264800000Y-97650000D01*
%TO.N,/CLK*%
X257700000Y-106100000D02*
X261417000Y-106100000D01*
X257700000Y-92850000D02*
X257700000Y-106100000D01*
X256440500Y-92850000D02*
X257700000Y-92850000D01*
X261417000Y-106100000D02*
X261417000Y-105664000D01*
%TO.N,/Vref*%
X240200000Y-92500000D02*
X240200000Y-94220000D01*
X244000000Y-96688517D02*
X244150000Y-96688517D01*
X252450000Y-97550000D02*
X244000000Y-97550000D01*
X252450000Y-97700000D02*
X252450000Y-97550000D01*
X253350000Y-110300000D02*
X252450000Y-110300000D01*
X243599500Y-92500000D02*
X240200000Y-92500000D01*
X244000000Y-97550000D02*
X244000000Y-96688517D01*
X261417000Y-110300000D02*
X253350000Y-110300000D01*
X252450000Y-110300000D02*
X252450000Y-97700000D01*
X261417000Y-110744000D02*
X261417000Y-110300000D01*
%TO.N,/ENA*%
X261417000Y-95550000D02*
X261417000Y-95504000D01*
X264900000Y-95550000D02*
X261417000Y-95550000D01*
X254850000Y-66200000D02*
X264900000Y-66200000D01*
X254850000Y-73200000D02*
X254850000Y-66200000D01*
X252050000Y-73200000D02*
X254850000Y-73200000D01*
X230040000Y-76250000D02*
X230050000Y-76250000D01*
X230040000Y-86600000D02*
X230040000Y-76250000D01*
X264900000Y-66200000D02*
X264900000Y-95550000D01*
%TO.N,/CTRL*%
X230040000Y-95829017D02*
X230040000Y-94220000D01*
X254370983Y-95829017D02*
X230040000Y-95829017D01*
X255150000Y-95050000D02*
X254370983Y-95829017D01*
X255150000Y-91400000D02*
X255150000Y-95050000D01*
X256450000Y-91400000D02*
X255150000Y-91400000D01*
X256450000Y-85344000D02*
X256450000Y-91400000D01*
X261417000Y-85344000D02*
X256450000Y-85344000D01*
%TO.N,/SYNC*%
X254100000Y-86600000D02*
X252900000Y-86600000D01*
X254100000Y-75184000D02*
X254100000Y-86600000D01*
X261417000Y-75184000D02*
X254100000Y-75184000D01*
%TO.N,/OSC*%
X222850000Y-103500000D02*
X224800000Y-103500000D01*
X222850000Y-101650000D02*
X222850000Y-103500000D01*
X209050000Y-101550000D02*
X222850000Y-101550000D01*
X222850000Y-101550000D02*
X222850000Y-101650000D01*
X198700000Y-101550000D02*
X209050000Y-101550000D01*
X198700000Y-96200000D02*
X198700000Y-101550000D01*
X198700000Y-84800000D02*
X198700000Y-96200000D01*
X199100000Y-84800000D02*
X198700000Y-84800000D01*
D23*
%TO.N,Net-(D4-Pad2)*%
X218000000Y-113500000D02*
X218230000Y-113500000D01*
X218000000Y-113700000D02*
X218000000Y-113500000D01*
X218230000Y-113500000D02*
X218230000Y-117500000D01*
X216200000Y-113700000D02*
X218000000Y-113700000D01*
X216200000Y-105590000D02*
X216200000Y-113700000D01*
X213150000Y-105590000D02*
X216200000Y-105590000D01*
%TO.N,Net-(D3-Pad2)*%
X218330000Y-119950000D02*
X218330000Y-124250000D01*
X215450000Y-119950000D02*
X218330000Y-119950000D01*
X215450000Y-112575000D02*
X215450000Y-119950000D01*
X213150000Y-112575000D02*
X215450000Y-112575000D01*
%TO.N,Net-(D6-Pad1)*%
X218330000Y-131400000D02*
X218330000Y-131200000D01*
X215800000Y-131400000D02*
X218330000Y-131400000D01*
X215800000Y-120830000D02*
X215800000Y-131400000D01*
X213150000Y-120830000D02*
X215800000Y-120830000D01*
%TO.N,Net-(D5-Pad1)*%
X213150000Y-139750000D02*
X218230000Y-139750000D01*
X213150000Y-128450000D02*
X213150000Y-139750000D01*
D22*
%TO.N,VSS*%
X224100000Y-102250000D02*
X224250000Y-102250000D01*
X224100000Y-96200000D02*
X224100000Y-102250000D01*
X240792000Y-68580000D02*
X243332000Y-71120000D01*
X228092000Y-66040000D02*
X230632000Y-68580000D01*
X230632000Y-68580000D02*
X240792000Y-68580000D01*
D23*
%TO.N,VS*%
X208712000Y-79550000D02*
X208712000Y-81050000D01*
X218856000Y-79550000D02*
X208712000Y-79550000D01*
X220356000Y-81050000D02*
X218856000Y-79550000D01*
X233570000Y-117500000D02*
X233470000Y-117500000D01*
X233570000Y-124250000D02*
X233570000Y-117500000D01*
X233570000Y-131200000D02*
X233570000Y-124250000D01*
X233470000Y-131200000D02*
X233570000Y-131200000D01*
X233470000Y-139750000D02*
X233470000Y-131200000D01*
X236950000Y-63300000D02*
X236982000Y-63300000D01*
X236982000Y-63300000D02*
X236982000Y-66040000D01*
X236950000Y-63450000D02*
X236950000Y-63300000D01*
X215392000Y-63450000D02*
X236950000Y-63450000D01*
X215392000Y-66040000D02*
X215392000Y-63450000D01*
X220850000Y-81050000D02*
X220356000Y-81050000D01*
X220850000Y-74150000D02*
X220850000Y-81050000D01*
X215392000Y-66040000D02*
X219250000Y-66040000D01*
X219250000Y-66040000D02*
X219250000Y-74150000D01*
X219250000Y-74150000D02*
X220850000Y-74150000D01*
%TD*%
M02*
