M48
; DRILL file {KiCad (6.0.6)} date Fri Jul 15 00:25:39 2022
; FORMAT={-:-/ absolute / inch / decimal}
; #@! TF.CreationDate,2022-07-15T00:25:39-04:00
; #@! TF.GenerationSoftware,Kicad,Pcbnew,(6.0.6)
; #@! TF.FileFunction,Plated,1,2,PTH
FMAT,2
INCH
; #@! TA.AperFunction,Plated,PTH,ViaDrill
T1C0.0157
; #@! TA.AperFunction,Plated,PTH,ComponentDrill
T2C0.0315
; #@! TA.AperFunction,Plated,PTH,ComponentDrill
T3C0.0394
; #@! TA.AperFunction,Plated,PTH,ComponentDrill
T4C0.0425
; #@! TA.AperFunction,Plated,PTH,ComponentDrill
T5C0.0472
; #@! TA.AperFunction,Plated,PTH,ComponentDrill
T6C0.0512
%
G90
G05
T1
X7.789Y-3.5417
X8.0498Y-3.3665
X8.1181Y-2.413
X8.5118Y-4.0319
X8.6256Y-3.4823
X8.6594Y-4.0319
X8.6998Y-4.0485
X8.7071Y-3.4866
X8.761Y-4.1654
X8.761Y-4.2677
X8.8287Y-4.2224
X8.8287Y-4.4449
X8.8287Y-4.0256
X8.8307Y-4.1594
X8.8504Y-4.0748
X8.8524Y-3.5587
X8.8544Y-4.2657
X8.8917Y-3.4472
X8.9134Y-3.2752
X8.9248Y-3.0827
X8.926Y-4.2207
X8.9331Y-4.2638
X8.937Y-4.1555
X8.9512Y-3.6138
X8.998Y-3.3091
X9.0079Y-3.835
X9.0229Y-3.0807
X9.0229Y-3.345
X9.0571Y-3.002
X9.0705Y-2.8481
X9.1043Y-2.9157
X9.1043Y-3.0004
X9.1083Y-2.7338
X9.148Y-2.9157
X9.1905Y-3.0807
X9.1909Y-2.9311
X9.1909Y-3.0004
X9.2268Y-4.4882
X9.2835Y-5.2185
X9.3228Y-4.7579
X9.3268Y-2.8481
X9.3606Y-2.9157
X9.5905Y-3.6417
X9.6053Y-3.1638
X9.6122Y-3.8066
X9.9232Y-2.8819
X9.9631Y-2.4913
X9.9724Y-2.7224
X9.9942Y-2.4575
X9.9961Y-2.6335
X9.9984Y-2.9266
X10.0961Y-3.6555
X10.1122Y-2.9938
X10.1122Y-3.3262
X10.1772Y-3.3938
X10.4252Y-3.8012
T2
X8.0202Y-3.1909
X8.217Y-3.1909
X9.0567Y-3.4094
X9.0567Y-3.7094
X9.1567Y-3.4094
X9.1567Y-3.7094
X9.2567Y-3.4094
X9.2567Y-3.7094
X9.3567Y-3.4094
X9.3567Y-3.7094
X9.439Y-3.0374
X9.439Y-3.2343
X9.4567Y-3.4094
X9.4567Y-3.7094
X9.5567Y-3.4094
X9.5567Y-3.7094
X9.6567Y-3.4094
X9.6567Y-3.7094
X9.7567Y-3.4094
X9.7567Y-3.7094
X9.8567Y-3.4094
X9.8567Y-3.7094
X9.9567Y-3.4094
X9.9567Y-3.7094
T3
X7.8386Y-3.0433
X7.8386Y-3.3386
T4
X9.18Y-2.8
X9.23Y-2.6
X9.28Y-2.8
X9.33Y-2.6
X9.38Y-2.8
X9.43Y-2.6
X9.48Y-2.8
X9.53Y-2.6
X9.58Y-2.8
X9.63Y-2.6
X9.68Y-2.8
X9.73Y-2.6
X9.78Y-2.8
X9.83Y-2.6
X9.88Y-2.8
T5
X7.7917Y-4.1457
X7.7917Y-4.4321
X7.7917Y-4.7571
X7.7917Y-5.0571
X7.8228Y-3.7874
X8.3917Y-4.1457
X8.3917Y-4.4321
X8.3917Y-4.7571
X8.3917Y-5.0571
X8.4786Y-3.1909
X8.5917Y-4.626
X8.5917Y-5.502
X8.5957Y-4.8917
X8.5957Y-5.1654
X8.6754Y-3.1909
X8.8228Y-3.7874
X9.1917Y-4.626
X9.1917Y-5.502
X9.1957Y-4.8917
X9.1957Y-5.1654
X9.3417Y-5.5492
X9.3437Y-5.3366
X9.9417Y-5.5492
X9.9437Y-5.3366
T6
X8.28Y-2.6
X8.48Y-2.6
X8.78Y-2.6
X8.98Y-2.6
X9.2402Y-4.264
X9.437Y-4.264
X9.6339Y-4.264
X9.8307Y-4.264
X10.292Y-2.76
X10.292Y-2.96
X10.292Y-3.16
X10.292Y-3.36
X10.292Y-3.56
X10.292Y-3.76
X10.292Y-3.96
X10.292Y-4.16
X10.292Y-4.36
X10.292Y-4.56
X10.292Y-4.76
X10.292Y-4.96
T0
M30
